# xmcd CD database file
#
# Track frame offsets:
#	150
#	14356
#	27671
#	49749
#	61519
#	75891
#	90330
#	105555
#	114986
#	129788
#	149694
#
# Disc length: 2285 seconds
#
# Revision: 1
# Processed by: cddbd v1.5.1PL2 Copyright (c) Steve Scherf et al.
# Submitted via: jetAudio 5
#
DISCID=7c08eb0b
DTITLE=Lars Jensen and Rob McLean - Bad Luck And Trouble
DYEAR=1900
DGENRE=
TTITLE0=Shout
TTITLE1=Borderline
TTITLE2=Bad Luck And Trouble
TTITLE3=The Day My Baby Said Goodbye
TTITLE4=Love In Vain
TTITLE5=Dyin' Blues
TTITLE6=Roll Away
TTITLE7=They're Red Hot
TTITLE8=Baby's Blue Dream
TTITLE9=O Linda
TTITLE10=It Takes A Lot To Laugh It Takes A Train To Cry
EXTD=
EXTT0=
EXTT1=
EXTT2=
EXTT3=
EXTT4=
EXTT5=
EXTT6=
EXTT7=
EXTT8=
EXTT9=
EXTT10=
PLAYORDER=
